<svg width="32" height="32" viewBox="0 0 32 32" fill="none" xmlns="http://www.w3.org/2000/svg">
<g id="Geo_black">
<g id="Social_icons_black">
<g id="Geo">
<path id="Combined-Shape" fill-rule="evenodd" clip-rule="evenodd" d="M0 15.925C0 24.7201 7.12987 31.85 15.925 31.85C24.7201 31.85 31.85 24.7201 31.85 15.925C31.85 7.12987 24.7201 0 15.925 0C7.12987 0 0 7.12987 0 15.925ZM15.9433 25.48C15.9433 25.48 11.6683 19.0865 10.155 15.532C9.7701 14.7035 9.555 13.7785 9.555 12.8028C9.555 9.25007 12.4069 6.37 15.925 6.37C19.4431 6.37 22.295 9.25007 22.295 12.8028C22.295 13.5846 22.1569 14.3339 21.904 15.027H21.9108C20.8967 17.7238 15.9433 25.48 15.9433 25.48Z" fill="#2E3192"/>
<path id="Path" d="M15.925 16.4558C17.9772 16.4558 19.6408 14.7922 19.6408 12.74C19.6408 10.6878 17.9772 9.02417 15.925 9.02417C13.8728 9.02417 12.2092 10.6878 12.2092 12.74C12.2092 14.7922 13.8728 16.4558 15.925 16.4558Z" fill="#2E3192"/>
</g>
</g>
</g>
</svg>
