<svg width="33" height="32" viewBox="0 0 33 32" fill="none" xmlns="http://www.w3.org/2000/svg">
<g id="Instagram">
<path id="Combined-Shape" fill-rule="evenodd" clip-rule="evenodd" d="M16.2032 0C7.40722 0 0.276672 7.13055 0.276672 15.9265C0.276672 24.7225 7.40722 31.853 16.2032 31.853C24.9992 31.853 32.1297 24.7225 32.1297 15.9265C32.1297 7.13055 24.9992 0 16.2032 0ZM12.7015 7.48366C13.6076 7.44243 13.8971 7.43234 16.204 7.43234H16.2013C18.5089 7.43234 18.7974 7.44243 19.7034 7.48366C20.6077 7.52507 21.2253 7.66824 21.7668 7.87829C22.326 8.09507 22.7985 8.38529 23.271 8.85778C23.7435 9.32992 24.0337 9.80383 24.2514 10.3625C24.4602 10.9026 24.6036 11.5198 24.646 12.4241C24.6867 13.3302 24.6973 13.6197 24.6973 15.9266C24.6973 18.2335 24.6867 18.5223 24.646 19.4283C24.6036 20.3323 24.4602 20.9497 24.2514 21.4899C24.0337 22.0484 23.7435 22.5223 23.271 22.9945C22.7991 23.467 22.3259 23.7579 21.7674 23.9749C21.2269 24.1849 20.609 24.3281 19.7047 24.3695C18.7986 24.4107 18.51 24.4208 16.2029 24.4208C13.8962 24.4208 13.6069 24.4107 12.7008 24.3695C11.7967 24.3281 11.1793 24.1849 10.6389 23.9749C10.0805 23.7579 9.60663 23.467 9.13467 22.9945C8.66236 22.5223 8.37214 22.0484 8.155 21.4898C7.94513 20.9497 7.80196 20.3324 7.76038 19.4281C7.71932 18.5221 7.70906 18.2335 7.70906 15.9266C7.70906 13.6197 7.71967 13.33 7.7602 12.4239C7.8009 11.52 7.94424 10.9026 8.15483 10.3623C8.37249 9.80383 8.66271 9.32992 9.1352 8.85778C9.60734 8.38547 10.0812 8.09525 10.6399 7.87829C11.18 7.66824 11.7973 7.52507 12.7015 7.48366Z" fill="#2E3192"/>
<path id="Combined-Shape_2" fill-rule="evenodd" clip-rule="evenodd" d="M15.442 8.96318C15.5899 8.96295 15.7491 8.96302 15.9209 8.9631L16.204 8.96318C18.4719 8.96318 18.7407 8.97132 19.6364 9.01202C20.4645 9.0499 20.914 9.18828 21.2135 9.30455C21.6099 9.4585 21.8925 9.64254 22.1896 9.93984C22.4869 10.2371 22.6709 10.5203 22.8252 10.9167C22.9415 11.2157 23.0801 11.6652 23.1178 12.4934C23.1585 13.3889 23.1673 13.6578 23.1673 15.9247C23.1673 18.1916 23.1585 18.4606 23.1178 19.3561C23.0799 20.1842 22.9415 20.6337 22.8252 20.9328C22.6713 21.3292 22.4869 21.6115 22.1896 21.9086C21.8923 22.2059 21.61 22.3899 21.2135 22.5439C20.9144 22.6607 20.4645 22.7987 19.6364 22.8366C18.7409 22.8773 18.4719 22.8861 16.204 22.8861C13.9358 22.8861 13.667 22.8773 12.7716 22.8366C11.9434 22.7983 11.4939 22.66 11.1943 22.5437C10.7979 22.3897 10.5148 22.2057 10.2175 21.9084C9.92019 21.6111 9.73615 21.3287 9.58184 20.9321C9.46558 20.633 9.32701 20.1835 9.28932 19.3553C9.24862 18.4599 9.24048 18.1909 9.24048 15.9226C9.24048 13.6543 9.24862 13.3867 9.28932 12.4913C9.32719 11.6631 9.46558 11.2136 9.58184 10.9142C9.7358 10.5178 9.92019 10.2347 10.2175 9.93737C10.5148 9.64007 10.7979 9.45603 11.1943 9.30171C11.4938 9.18492 11.9434 9.04689 12.7716 9.00884C13.5552 8.97345 13.8589 8.96283 15.442 8.96106V8.96318ZM20.7381 10.3736C20.1754 10.3736 19.7188 10.8296 19.7188 11.3925C19.7188 11.9553 20.1754 12.4118 20.7381 12.4118C21.3009 12.4118 21.7575 11.9553 21.7575 11.3925C21.7575 10.8298 21.3009 10.3732 20.7381 10.3732V10.3736ZM11.8418 15.9266C11.8418 13.5177 13.7949 11.5646 16.2038 11.5645C18.6128 11.5645 20.5654 13.5176 20.5654 15.9266C20.5654 18.3356 18.613 20.2879 16.204 20.2879C13.795 20.2879 11.8418 18.3356 11.8418 15.9266Z" fill="#2E3192"/>
<path id="Shape" d="M16.204 13.0952C17.7676 13.0952 19.0354 14.3628 19.0354 15.9266C19.0354 17.4903 17.7676 18.758 16.204 18.758C14.6401 18.758 13.3726 17.4903 13.3726 15.9266C13.3726 14.3628 14.6401 13.0952 16.204 13.0952Z" fill="#2E3192"/>
</g>
</svg>
