<svg width="32" height="32" viewBox="0 0 32 32" fill="none" xmlns="http://www.w3.org/2000/svg">
<g id="Mail">
<path id="Combined-Shape" fill-rule="evenodd" clip-rule="evenodd" d="M15.9265 31.853C7.13055 31.853 0 24.7225 0 15.9265C0 7.13055 7.13055 0 15.9265 0C24.7225 0 31.853 7.13055 31.853 15.9265C31.853 24.7225 24.7225 31.853 15.9265 31.853ZM16.1484 15.0327C17.4525 15.0327 23.7932 11.4671 23.7932 11.4671L23.8033 10.83C23.8033 10.1267 23.2325 9.55593 22.5273 9.55593H9.76953C9.06494 9.55593 8.49414 10.1267 8.49414 10.83V11.3977C8.49414 11.3977 14.9042 15.0327 16.1484 15.0327ZM8.50433 13.3783C8.50369 13.3783 14.9042 16.7846 16.1484 16.7846C17.5124 16.7846 23.7932 13.3783 23.7932 13.3783L23.8033 21.023C23.8033 21.7263 23.2325 22.2972 22.5273 22.2972H9.76953C9.06558 22.2972 8.49414 21.7263 8.49414 21.023L8.50433 13.3783Z" fill="#2E3192"/>
</g>
</svg>
