<svg width="32" height="32" viewBox="0 0 32 32" fill="none" xmlns="http://www.w3.org/2000/svg">
<g id="Phone">
<path id="Combined-Shape" fill-rule="evenodd" clip-rule="evenodd" d="M15.9265 0C7.13055 0 0 7.13055 0 15.9265C0 24.7225 7.13055 31.853 15.9265 31.853C24.7225 31.853 31.853 24.7225 31.853 15.9265C31.853 7.13055 24.7225 0 15.9265 0ZM11.1404 7.96326C11.1876 8.00064 11.2249 8.00064 11.2623 7.99576C11.4557 7.97951 11.6215 8.02664 11.7288 8.20379C11.7477 8.23448 11.7666 8.26518 11.7856 8.29588C12.0073 8.65528 12.2295 9.01534 12.4406 9.38367C12.5934 9.64996 12.7392 9.92057 12.8852 10.1915C12.9922 10.3901 13.0993 10.5889 13.2093 10.7862C13.2519 10.8662 13.3051 10.9415 13.3583 11.0169C13.3884 11.0594 13.4184 11.102 13.4466 11.1454C13.5144 11.2533 13.5794 11.3642 13.6428 11.4725L13.653 11.4899C13.7895 11.7483 13.783 12.0083 13.5798 12.2147C13.366 12.4334 13.1362 12.6405 12.9068 12.8472C12.8258 12.9201 12.745 12.993 12.6649 13.0663C12.5653 13.1577 12.4642 13.2476 12.3632 13.3375C12.2038 13.4794 12.0445 13.6212 11.8913 13.7684C11.6963 13.9569 11.6459 14.1926 11.7775 14.4412C11.7897 14.4641 11.8019 14.4869 11.8141 14.5097C12.0049 14.8672 12.1955 15.2242 12.4048 15.574C13.2304 16.9505 14.2852 18.1207 15.6178 19.0226C16.1314 19.372 16.6661 19.6922 17.2056 19.9977C17.7143 20.2854 17.9126 20.2366 18.3075 19.7962C18.5161 19.5646 18.7204 19.3309 18.9251 19.0968C19.0808 18.9187 19.2367 18.7404 19.3947 18.5627C19.4825 18.4636 19.5881 18.3758 19.6905 18.2913C19.8985 18.1158 20.1261 18.0963 20.365 18.2165C20.3799 18.2238 20.3952 18.231 20.4104 18.2381C20.4631 18.2628 20.5163 18.2878 20.5616 18.3206C20.9854 18.6237 21.4426 18.8673 21.8992 19.1106C22.1255 19.2312 22.3517 19.3517 22.5736 19.4793C22.8023 19.6108 23.0271 19.7481 23.2513 19.8851C23.3791 19.9633 23.5068 20.0413 23.6348 20.118C23.825 20.2301 23.9014 20.3943 23.8884 20.6202C23.8526 21.2556 23.747 21.8797 23.3781 22.416C23.2237 22.6387 23.0043 22.8337 22.7832 22.9913C22.1706 23.4204 21.4864 23.6853 20.7583 23.8478C20.0968 23.9957 19.437 23.9421 18.8032 23.7438C17.5794 23.3667 16.3735 22.9344 15.2635 22.2795C14.2559 21.6831 13.3393 20.9631 12.491 20.1586C11.4167 19.1364 10.4579 18.0215 9.68265 16.7522C9.17722 15.9283 8.81643 15.0409 8.48977 14.1357C8.29149 13.5896 8.09647 13.0485 8.00871 12.4699C7.90795 11.8149 7.97783 11.1844 8.18748 10.5636C8.376 10.0029 8.61165 9.46655 8.96757 8.98713C9.2471 8.61496 9.59652 8.34193 10.0483 8.22004C10.3036 8.1525 10.5605 8.09464 10.8173 8.03679C10.9251 8.01252 11.0328 7.98824 11.1404 7.96326Z" fill="#2E3192"/>
</g>
</svg>
