<svg width="32" height="32" viewBox="0 0 32 32" fill="none" xmlns="http://www.w3.org/2000/svg">
<g id="WhatsApp">
<path id="Combined-Shape" fill-rule="evenodd" clip-rule="evenodd" d="M0 15.9265C0 24.7225 7.13055 31.853 15.9265 31.853C24.7225 31.853 31.853 24.7225 31.853 15.9265C31.853 7.13055 24.7225 0 15.9265 0C7.13055 0 0 7.13055 0 15.9265ZM25.9219 15.317C25.9198 20.5375 21.673 24.7852 16.4515 24.7873H16.4476C14.8626 24.7868 13.3052 24.3891 11.9219 23.6346L6.90151 24.9516L8.24505 20.0441C7.41629 18.6079 6.9802 16.9787 6.98091 15.3096C6.98299 10.088 11.2314 5.83976 16.4514 5.83976C18.9849 5.84085 21.3627 6.82711 23.1507 8.61722C24.9387 10.4072 25.9229 12.7866 25.9219 15.317Z" fill="#2E3192"/>
<path id="Combined-Shape_2" fill-rule="evenodd" clip-rule="evenodd" d="M9.17535 22.7017L12.1545 21.9202L12.442 22.0907C13.6505 22.8079 15.0359 23.1874 16.4483 23.1879H16.4515C20.79 23.1879 24.3211 19.6568 24.3228 15.3165C24.3237 13.2132 23.5057 11.2356 22.0196 9.74772C20.5334 8.25985 18.5571 7.44006 16.4546 7.43933C12.1128 7.43933 8.58162 10.9702 8.5799 15.3101C8.57929 16.7974 8.99544 18.2459 9.78338 19.4992L9.97054 19.797L9.17535 22.7017ZM20.8985 17.356C21.0636 17.4357 21.175 17.4896 21.2226 17.569C21.2818 17.6677 21.2818 18.1415 21.0847 18.6943C20.8874 19.247 19.9421 19.7515 19.4874 19.8194C19.0797 19.8804 18.5638 19.9058 17.997 19.7257C17.6533 19.6166 17.2125 19.471 16.648 19.2272C14.4296 18.2693 12.9304 16.1192 12.647 15.7128C12.6272 15.6844 12.6133 15.6645 12.6056 15.6541L12.6037 15.6516C12.4784 15.4845 11.6393 14.3649 11.6393 13.2062C11.6393 12.1162 12.1748 11.5449 12.4212 11.2819C12.4381 11.2639 12.4536 11.2474 12.4675 11.2322C12.6844 10.9953 12.9408 10.936 13.0986 10.936C13.2563 10.936 13.4142 10.9375 13.5521 10.9444C13.5691 10.9453 13.5868 10.9452 13.6051 10.9451C13.743 10.9443 13.9149 10.9432 14.0845 11.3506C14.1497 11.5074 14.2452 11.7398 14.3459 11.985C14.5495 12.4807 14.7745 13.0284 14.8141 13.1077C14.8733 13.2261 14.9127 13.3642 14.8338 13.5222C14.822 13.5459 14.811 13.5683 14.8006 13.5896C14.7413 13.7106 14.6977 13.7996 14.5972 13.917C14.5576 13.9631 14.5168 14.0129 14.4759 14.0627C14.3945 14.1618 14.3131 14.2609 14.2422 14.3315C14.1238 14.4495 14.0004 14.5776 14.1385 14.8145C14.2765 15.0514 14.7514 15.8262 15.4549 16.4537C16.2111 17.1282 16.8683 17.4133 17.2014 17.5578C17.2665 17.586 17.3192 17.6089 17.3579 17.6282C17.5944 17.7467 17.7324 17.7269 17.8705 17.569C18.0085 17.4111 18.462 16.878 18.6198 16.6412C18.7775 16.4043 18.9353 16.4438 19.1522 16.5227C19.3691 16.6018 20.5325 17.1742 20.7691 17.2926C20.8153 17.3157 20.8585 17.3366 20.8985 17.356Z" fill="#2E3192"/>
</g>
</svg>
