<svg width="214" height="214" viewBox="0 0 214 214" fill="none" xmlns="http://www.w3.org/2000/svg">
<path d="M115.917 160.5C115.917 165.425 111.924 169.417 107 169.417C102.075 169.417 98.0833 165.425 98.0833 160.5C98.0833 155.575 102.075 151.583 107 151.583C111.924 151.583 115.917 155.575 115.917 160.5Z" fill="#D9D9D9"/>
<path fill-rule="evenodd" clip-rule="evenodd" d="M107 17.8333C110.238 17.8333 113.222 19.589 114.795 22.4197L203.961 182.92C205.496 185.681 205.454 189.049 203.852 191.772C202.25 194.495 199.326 196.167 196.167 196.167H17.8334C14.6741 196.167 11.7506 194.495 10.1484 191.772C8.54621 189.049 8.50453 185.681 10.0388 182.92L99.2055 22.4197C100.778 19.589 103.762 17.8333 107 17.8333ZM32.9874 178.333H181.013L107 45.1105L32.9874 178.333ZM107 80.25C111.925 80.25 115.917 84.2421 115.917 89.1667V124.833C115.917 129.758 111.925 133.75 107 133.75C102.076 133.75 98.0834 129.758 98.0834 124.833V89.1667C98.0834 84.2421 102.076 80.25 107 80.25Z" fill="#D9D9D9"/>
</svg>
